<?xml version="1.0" encoding="UTF-8" standalone="no"?>
<svg width="26px" height="32px" viewBox="0 0 26 32" version="1.1" xmlns="http://www.w3.org/2000/svg" xmlns:xlink="http://www.w3.org/1999/xlink">
    <!-- Generator: Sketch 44.1 (41455) - http://www.bohemiancoding.com/sketch -->
    <title>Arrow 10</title>
    <desc>Created with Sketch.</desc>
    <defs></defs>
    <g id="Page-2-Copy" stroke="none" stroke-width="1" fill="none" fill-rule="evenodd">
        <g id="44" stroke="#979797" transform="translate(-3.000000, 0.000000)" fill-rule="nonzero" fill="#95909E">
            <path d="M28.4157766,12.2870025 L16.6044894,0.617442789 C16.1986494,0.225223649 15.5387161,0.224417382 15.1318409,0.615643596 L3.46196695,12.2771846 C2.8068035,12.9071494 3.27081696,13.9842914 4.197358,13.9842914 L10.9802261,13.9850266 C11.5546022,13.9850266 12.0202261,13.5373114 12.0202261,12.9850266 C12.0202261,12.4327419 11.5546022,11.9850266 10.9802261,11.9850266 L4.197358,11.9842914 L4.93274906,13.6913981 L16.602623,2.02985716 L15.1299745,2.02805797 L26.9412617,13.6976177 L27.6777551,11.9923104 L21.110059,11.9842923 C20.535683,11.984698 20.0704013,12.432742 20.0708233,12.9850266 C20.0712452,13.5373112 20.537211,13.9846975 21.111587,13.9842918 L27.6792831,13.9923099 C28.6041822,13.9916565 29.0681151,12.9174472 28.4157766,12.2870025 Z M10.0236439,19.0086136 L10.0236439,25.9913864 C10.0236439,29.3076981 12.713402,32 16.0236439,32 C19.3384223,32 22.0236439,29.3206725 22.0236439,26.0078595 L22.0236439,11.9921405 L20.0236439,11.9921405 L20.0236439,26.0078595 C20.0236439,28.215118 18.2348354,30 16.0236439,30 C13.8183949,30 12.0236439,28.2035516 12.0236439,25.9913864 L12.0236439,19.0086136 L12.0236439,12 L10.0236439,12 L10.0236439,19.0086136 Z" id="Rectangle-449" stroke="none" transform="translate(16.000000, 16.000000) rotate(-180.000000) translate(-16.000000, -16.000000) "></path>
        </g>
    </g>
</svg>