<?xml version="1.0" encoding="UTF-8" standalone="no"?>
<svg
   xmlns:dc="http://purl.org/dc/elements/1.1/"
   xmlns:cc="http://creativecommons.org/ns#"
   xmlns:rdf="http://www.w3.org/1999/02/22-rdf-syntax-ns#"
   xmlns:svg="http://www.w3.org/2000/svg"
   xmlns="http://www.w3.org/2000/svg"
   viewBox="0 0 666.66669 666.66669"
   height="666.66669"
   width="666.66669"
   xml:space="preserve"
   id="svg2"
   version="1.1"><metadata
     id="metadata8"><rdf:RDF><cc:Work
         rdf:about=""><dc:format>image/svg+xml</dc:format><dc:type
           rdf:resource="http://purl.org/dc/dcmitype/StillImage" /></cc:Work></rdf:RDF></metadata><defs
     id="defs6"><clipPath
       id="clipPath18"
       clipPathUnits="userSpaceOnUse"><path
         id="path16"
         d="M 0,500 H 500 V 0 H 0 Z" /></clipPath></defs><g
     transform="matrix(1.3333333,0,0,-1.3333333,0,666.66667)"
     id="g10"><g
       id="g12"><g
         clip-path="url(#clipPath18)"
         id="g14"><g
           transform="translate(53.1094,263.5474)"
           id="g20"><path
             id="path22"
             style="fill:#232a55;fill-opacity:1;fill-rule:nonzero;stroke:none"
             d="m 0,0 c -7.847,0.005 -15.561,-2.022 -22.392,-5.886 v -65.336 c 0.019,-1.83 -1.42,-3.345 -3.249,-3.422 h -14.927 c -1.829,0.077 -3.267,1.592 -3.249,3.422 v 85.011 c 0.026,1.783 1.465,3.222 3.249,3.249 h 14.142 c 1.783,-0.027 3.222,-1.466 3.249,-3.249 v -3.423 c 6.689,5.089 14.865,7.836 23.27,7.817 1.783,-0.027 3.222,-1.466 3.249,-3.249 V 3.255 C 3.249,1.464 1.793,0.046 0,0" /></g><g
           transform="translate(120.3765,243.1553)"
           id="g24"><path
             id="path26"
             style="fill:#232a55;fill-opacity:1;fill-rule:nonzero;stroke:none"
             d="M 0,0 C 0,12.644 -7.024,20.021 -17.038,20.021 -27.051,20.021 -34.429,12.91 -34.429,0 v -0.619 h 34.423 z m 18.356,-15.894 h -52.952 v -0.525 c 0,-9.395 3.862,-20.641 19.495,-20.641 10.014,0.087 19.935,0.62 29.862,1.671 h 0.526 c 1.671,0 2.896,-0.792 2.896,-2.475 v -10.713 c 0,-2.636 -0.526,-3.776 -3.422,-4.214 -10.379,-2.051 -20.95,-2.964 -31.527,-2.724 -16.245,0 -39.342,8.783 -39.342,40.748 v 12.032 c 0,25.374 14.141,41.273 38.989,41.273 25.029,0 38.644,-17.038 38.644,-41.273 v -9.135 c 0.08,-2.607 -0.898,-4.024 -3.169,-4.024" /></g><g
           transform="translate(232.0801,188.9834)"
           id="g28"><path
             id="path30"
             style="fill:#232a55;fill-opacity:1;fill-rule:nonzero;stroke:none"
             d="m 0,0 h -14.928 c -1.829,0.077 -3.267,1.592 -3.249,3.423 v 52.865 c 0,14.142 -1.318,18.177 -13.789,18.177 -6.498,-0.481 -12.79,-2.498 -18.356,-5.885 V 3.243 c 0.015,-1.829 -1.422,-3.343 -3.249,-3.423 h -14.928 c -1.828,0.08 -3.265,1.594 -3.25,3.423 V 88.26 c 0.027,1.783 1.467,3.222 3.25,3.249 h 14.142 c 1.783,-0.027 3.222,-1.466 3.249,-3.249 v -3.423 c 7.67,5.458 16.94,8.208 26.346,7.817 23.357,0 28.104,-15.719 28.104,-36.36 V 3.342 C 3.252,1.535 1.807,0.091 0,0" /></g><g
           transform="translate(307.708,263.0151)"
           id="g32"><path
             id="path34"
             style="fill:#232a55;fill-opacity:1;fill-rule:nonzero;stroke:none"
             d="m 0,0 c -5.184,0.688 -10.404,1.068 -15.633,1.139 -13.962,0 -17.385,-9.902 -17.385,-23.27 v -12.471 c 0,-13.35 3.422,-23.271 17.385,-23.271 5.233,-0.016 10.458,0.365 15.633,1.14 z m 17.02,-71.24 c -10.682,-2.713 -21.652,-4.128 -32.671,-4.215 -26.167,0 -38.817,15.472 -38.817,40.747 v 12.558 c 0,25.375 12.644,40.748 38.817,40.748 5.228,-0.07 10.449,-0.451 15.632,-1.139 v 28.716 c 0.027,1.784 1.466,3.223 3.249,3.25 h 14.928 c 1.783,-0.027 3.223,-1.466 3.25,-3.25 V -66.908 c 0.006,-2.29 -0.699,-3.348 -4.388,-4.332" /></g><g
           transform="translate(403.5,243.1553)"
           id="g36"><path
             id="path38"
             style="fill:#232a55;fill-opacity:1;fill-rule:nonzero;stroke:none"
             d="M 0,0 C 0,12.644 -7.025,20.021 -17.038,20.021 -27.052,20.021 -34.43,12.91 -34.43,0 v -0.619 h 34.423 z m 18.355,-15.894 h -52.951 v -0.525 c 0,-9.395 3.862,-20.641 19.495,-20.641 10.013,0.087 19.934,0.62 29.862,1.671 h 0.526 c 1.578,0 2.897,-0.792 2.897,-2.475 v -10.713 c 0,-2.636 -0.527,-3.776 -3.423,-4.214 -10.378,-2.051 -20.95,-2.964 -31.527,-2.724 -16.245,0 -39.342,8.783 -39.342,40.748 v 12.032 c 0,25.374 14.141,41.273 38.99,41.273 25.028,0 38.643,-17.038 38.643,-41.273 v -9.135 c 0.08,-2.607 -0.897,-4.024 -3.169,-4.024 z" /></g><g
           transform="translate(487.3721,263.5474)"
           id="g40"><path
             id="path42"
             style="fill:#232a55;fill-opacity:1;fill-rule:nonzero;stroke:none"
             d="m 0,0 c -7.847,0.005 -15.562,-2.022 -22.392,-5.886 v -65.336 c 0.019,-1.83 -1.42,-3.346 -3.249,-3.422 h -14.927 c -1.828,0.08 -3.265,1.593 -3.249,3.422 v 85.011 c 0.026,1.783 1.465,3.222 3.249,3.249 h 14.135 c 1.784,-0.027 3.223,-1.466 3.249,-3.249 v -3.423 c 6.689,5.089 14.867,7.836 23.271,7.817 C 1.87,18.156 3.31,16.717 3.336,14.934 V 3.255 C 3.271,1.455 1.803,0.022 0,0" /></g></g></g></g></svg>